<?xml version="1.0" encoding="us-ascii" standalone="no"?><svg xmlns="http://www.w3.org/2000/svg" xmlns:xlink="http://www.w3.org/1999/xlink" contentStyleType="text/css" height="1280px" preserveAspectRatio="none" style="width:671px;height:1280px;background:#FFFFFF;" version="1.1" viewBox="0 0 671 1280" width="671px" zoomAndPan="magnify"><defs/><g><text fill="#000000" font-family="Verdana" font-size="22" font-weight="bold" lengthAdjust="spacing" textLength="207" x="230.5" y="37.1182">Activity Diagram</text><ellipse cx="446.75" cy="62.7373" fill="#FFFFFF" rx="10" ry="10" style="stroke:#000000;stroke-width:1.0;"/><rect fill="#E0E0E0" height="32.1533" rx="12.5" ry="12.5" style="stroke:#888888;stroke-width:2.0;" width="133" x="380.25" y="92.7373"/><text fill="#000000" font-family="Verdana" font-size="10" lengthAdjust="spacing" textLength="113" x="390.25" y="112.791">User Opens Chatbot</text><rect fill="#E0E0E0" height="32.1533" rx="12.5" ry="12.5" style="stroke:#888888;stroke-width:2.0;" width="168" x="362.75" y="144.8906"/><text fill="#000000" font-family="Verdana" font-size="10" lengthAdjust="spacing" textLength="148" x="372.75" y="164.9443">Display Welcome Message</text><rect fill="#E0E0E0" height="32.1533" rx="12.5" ry="12.5" style="stroke:#888888;stroke-width:2.0;" width="135" x="379.25" y="197.0439"/><text fill="#000000" font-family="Verdana" font-size="10" lengthAdjust="spacing" textLength="115" x="389.25" y="217.0977">User Types Message</text><rect fill="#E0E0E0" height="32.1533" rx="12.5" ry="12.5" style="stroke:#888888;stroke-width:2.0;" width="99" x="397.25" y="249.1973"/><text fill="#000000" font-family="Verdana" font-size="10" lengthAdjust="spacing" textLength="79" x="407.25" y="269.251">Validate Input</text><polygon fill="#E0E0E0" points="413.25,301.3506,480.25,301.3506,492.25,313.3506,480.25,325.3506,413.25,325.3506,401.25,313.3506,413.25,301.3506" style="stroke:#888888;stroke-width:2.0;"/><text fill="#000000" font-family="Verdana" font-size="10" lengthAdjust="spacing" textLength="67" x="413.25" y="317.3276">Valid Input?</text><text fill="#000000" font-family="Verdana" font-size="11" lengthAdjust="spacing" textLength="20" x="381.25" y="311.041">yes</text><text fill="#000000" font-family="Verdana" font-size="11" lengthAdjust="spacing" textLength="14" x="492.25" y="311.041">no</text><rect fill="#E0E0E0" height="32.1533" rx="12.5" ry="12.5" style="stroke:#888888;stroke-width:2.0;" width="114" x="236.5" y="335.3506"/><text fill="#000000" font-family="Verdana" font-size="10" lengthAdjust="spacing" textLength="94" x="246.5" y="355.4043">Send to Backend</text><rect fill="#E0E0E0" height="32.1533" rx="12.5" ry="12.5" style="stroke:#888888;stroke-width:2.0;" width="109" x="239" y="387.5039"/><text fill="#000000" font-family="Verdana" font-size="10" lengthAdjust="spacing" textLength="89" x="249" y="407.5576">Preprocess Text</text><rect fill="#E0E0E0" height="32.1533" rx="12.5" ry="12.5" style="stroke:#888888;stroke-width:2.0;" width="89" x="249" y="439.6572"/><text fill="#000000" font-family="Verdana" font-size="10" lengthAdjust="spacing" textLength="69" x="259" y="459.7109">NLP Analysis</text><rect fill="#E0E0E0" height="32.1533" rx="12.5" ry="12.5" style="stroke:#888888;stroke-width:2.0;" width="101" x="243" y="491.8105"/><text fill="#000000" font-family="Verdana" font-size="10" lengthAdjust="spacing" textLength="81" x="253" y="511.8643">Identify Intent</text><rect fill="#E0E0E0" height="32.1533" rx="12.5" ry="12.5" style="stroke:#888888;stroke-width:2.0;" width="101" x="243" y="543.9639"/><text fill="#000000" font-family="Verdana" font-size="10" lengthAdjust="spacing" textLength="81" x="253" y="564.0176">Extract Entities</text><polygon fill="#E0E0E0" points="239.5,596.1172,347.5,596.1172,359.5,608.1172,347.5,620.1172,239.5,620.1172,227.5,608.1172,239.5,596.1172" style="stroke:#888888;stroke-width:2.0;"/><text fill="#000000" font-family="Verdana" font-size="10" lengthAdjust="spacing" textLength="108" x="239.5" y="612.0942">Intent Recognized?</text><text fill="#000000" font-family="Verdana" font-size="11" lengthAdjust="spacing" textLength="20" x="207.5" y="605.8076">yes</text><text fill="#000000" font-family="Verdana" font-size="11" lengthAdjust="spacing" textLength="14" x="359.5" y="605.8076">no</text><rect fill="#E0E0E0" height="32.1533" rx="12.5" ry="12.5" style="stroke:#888888;stroke-width:2.0;" width="110" x="99.5" y="630.1172"/><text fill="#000000" font-family="Verdana" font-size="10" lengthAdjust="spacing" textLength="90" x="109.5" y="650.1709">Query Database</text><polygon fill="#E0E0E0" points="105,682.2705,204,682.2705,216,694.2705,204,706.2705,105,706.2705,93,694.2705,105,682.2705" style="stroke:#888888;stroke-width:2.0;"/><text fill="#000000" font-family="Verdana" font-size="10" lengthAdjust="spacing" textLength="99" x="105" y="698.2476">Response Found?</text><text fill="#000000" font-family="Verdana" font-size="11" lengthAdjust="spacing" textLength="20" x="73" y="691.9609">yes</text><text fill="#000000" font-family="Verdana" font-size="11" lengthAdjust="spacing" textLength="14" x="216" y="691.9609">no</text><rect fill="#E0E0E0" height="32.1533" rx="12.5" ry="12.5" style="stroke:#888888;stroke-width:2.0;" width="125" x="6" y="716.2705"/><text fill="#000000" font-family="Verdana" font-size="10" lengthAdjust="spacing" textLength="105" x="16" y="736.3242">Retrieve Response</text><rect fill="#E0E0E0" height="32.1533" rx="12.5" ry="12.5" style="stroke:#888888;stroke-width:2.0;" width="179" x="151" y="716.2705"/><text fill="#000000" font-family="Verdana" font-size="10" lengthAdjust="spacing" textLength="159" x="161" y="736.3242">Generate Fallback Response</text><polygon fill="#E0E0E0" points="154.5,754.4238,166.5,766.4238,154.5,778.4238,142.5,766.4238,154.5,754.4238" style="stroke:#888888;stroke-width:2.0;"/><rect fill="#E0E0E0" height="32.1533" rx="12.5" ry="12.5" style="stroke:#888888;stroke-width:2.0;" width="145" x="360" y="630.1172"/><text fill="#000000" font-family="Verdana" font-size="10" lengthAdjust="spacing" textLength="125" x="370" y="650.1709">Show Default Message</text><polygon fill="#E0E0E0" points="293.5,784.4238,305.5,796.4238,293.5,808.4238,281.5,796.4238,293.5,784.4238" style="stroke:#888888;stroke-width:2.0;"/><rect fill="#E0E0E0" height="32.1533" rx="12.5" ry="12.5" style="stroke:#888888;stroke-width:2.0;" width="117" x="235" y="828.4238"/><text fill="#000000" font-family="Verdana" font-size="10" lengthAdjust="spacing" textLength="97" x="245" y="848.4775">Log Conversation</text><rect fill="#E0E0E0" height="32.1533" rx="12.5" ry="12.5" style="stroke:#888888;stroke-width:2.0;" width="151" x="218" y="880.5771"/><text fill="#000000" font-family="Verdana" font-size="10" lengthAdjust="spacing" textLength="131" x="228" y="900.6309">Send Response to User</text><rect fill="#E0E0E0" height="32.1533" rx="12.5" ry="12.5" style="stroke:#888888;stroke-width:2.0;" width="119" x="234" y="932.7305"/><text fill="#000000" font-family="Verdana" font-size="10" lengthAdjust="spacing" textLength="99" x="244" y="952.7842">Display Response</text><polygon fill="#E0E0E0" points="252,984.8838,335,984.8838,347,996.8838,335,1008.8838,252,1008.8838,240,996.8838,252,984.8838" style="stroke:#888888;stroke-width:2.0;"/><text fill="#000000" font-family="Verdana" font-size="10" lengthAdjust="spacing" textLength="83" x="252" y="1000.8608">User Satisfied?</text><text fill="#000000" font-family="Verdana" font-size="11" lengthAdjust="spacing" textLength="20" x="220" y="994.5742">yes</text><text fill="#000000" font-family="Verdana" font-size="11" lengthAdjust="spacing" textLength="14" x="347" y="994.5742">no</text><rect fill="#E0E0E0" height="32.1533" rx="12.5" ry="12.5" style="stroke:#888888;stroke-width:2.0;" width="144" x="138.25" y="1018.8838"/><text fill="#000000" font-family="Verdana" font-size="10" lengthAdjust="spacing" textLength="124" x="148.25" y="1038.9375">Log Positive Feedback</text><rect fill="#E0E0E0" height="32.1533" rx="12.5" ry="12.5" style="stroke:#888888;stroke-width:2.0;" width="149" x="302.25" y="1018.8838"/><text fill="#000000" font-family="Verdana" font-size="10" lengthAdjust="spacing" textLength="129" x="312.25" y="1038.9375">Log Negative Feedback</text><polygon fill="#E0E0E0" points="293.5,1057.0371,305.5,1069.0371,293.5,1081.0371,281.5,1069.0371,293.5,1057.0371" style="stroke:#888888;stroke-width:2.0;"/><polygon fill="#E0E0E0" points="250.5,1101.0371,336.5,1101.0371,348.5,1113.0371,336.5,1125.0371,250.5,1125.0371,238.5,1113.0371,250.5,1101.0371" style="stroke:#888888;stroke-width:2.0;"/><text fill="#000000" font-family="Verdana" font-size="10" lengthAdjust="spacing" textLength="86" x="250.5" y="1117.0142">Continue Chat?</text><text fill="#000000" font-family="Verdana" font-size="11" lengthAdjust="spacing" textLength="20" x="218.5" y="1110.7275">yes</text><text fill="#000000" font-family="Verdana" font-size="11" lengthAdjust="spacing" textLength="14" x="348.5" y="1110.7275">no</text><rect fill="#E0E0E0" height="32.1533" rx="12.5" ry="12.5" style="stroke:#888888;stroke-width:2.0;" width="135" x="154" y="1135.0371"/><text fill="#000000" font-family="Verdana" font-size="10" lengthAdjust="spacing" textLength="115" x="164" y="1155.0908">User Types Message</text><rect fill="#E0E0E0" height="32.1533" rx="12.5" ry="12.5" style="stroke:#888888;stroke-width:2.0;" width="94" x="318.5" y="1135.0371"/><text fill="#000000" font-family="Verdana" font-size="10" lengthAdjust="spacing" textLength="74" x="328.5" y="1155.0908">Save Session</text><rect fill="#E0E0E0" height="32.1533" rx="12.5" ry="12.5" style="stroke:#888888;stroke-width:2.0;" width="113" x="309" y="1187.1904"/><text fill="#000000" font-family="Verdana" font-size="10" lengthAdjust="spacing" textLength="93" x="319" y="1207.2441">Display Goodbye</text><ellipse cx="365.5" cy="1250.3438" fill="none" rx="11" ry="11" style="stroke:#000000;stroke-width:1.0;"/><ellipse cx="365.5" cy="1250.3438" fill="#FFFFFF" rx="6" ry="6" style="stroke:#000000;stroke-width:1.0;"/><rect fill="#E0E0E0" height="32.1533" rx="12.5" ry="12.5" style="stroke:#888888;stroke-width:2.0;" width="130" x="535" y="335.3506"/><text fill="#000000" font-family="Verdana" font-size="10" lengthAdjust="spacing" textLength="110" x="545" y="355.4043">Show Error Message</text><ellipse cx="600" cy="398.5039" fill="none" rx="11" ry="11" style="stroke:#000000;stroke-width:1.0;"/><ellipse cx="600" cy="398.5039" fill="#FFFFFF" rx="6" ry="6" style="stroke:#000000;stroke-width:1.0;"/><line style="stroke:#000000;stroke-width:1.5;" x1="446.75" x2="446.75" y1="72.7373" y2="92.7373"/><polygon fill="#000000" points="442.75,82.7373,446.75,92.7373,450.75,82.7373,446.75,86.7373" style="stroke:#000000;stroke-width:1.0;"/><line style="stroke:#000000;stroke-width:1.5;" x1="446.75" x2="446.75" y1="124.8906" y2="144.8906"/><polygon fill="#000000" points="442.75,134.8906,446.75,144.8906,450.75,134.8906,446.75,138.8906" style="stroke:#000000;stroke-width:1.0;"/><line style="stroke:#000000;stroke-width:1.5;" x1="446.75" x2="446.75" y1="177.0439" y2="197.0439"/><polygon fill="#000000" points="442.75,187.0439,446.75,197.0439,450.75,187.0439,446.75,191.0439" style="stroke:#000000;stroke-width:1.0;"/><line style="stroke:#000000;stroke-width:1.5;" x1="446.75" x2="446.75" y1="229.1973" y2="249.1973"/><polygon fill="#000000" points="442.75,239.1973,446.75,249.1973,450.75,239.1973,446.75,243.1973" style="stroke:#000000;stroke-width:1.0;"/><line style="stroke:#000000;stroke-width:1.5;" x1="293.5" x2="293.5" y1="367.5039" y2="387.5039"/><polygon fill="#000000" points="289.5,377.5039,293.5,387.5039,297.5,377.5039,293.5,381.5039" style="stroke:#000000;stroke-width:1.0;"/><line style="stroke:#000000;stroke-width:1.5;" x1="293.5" x2="293.5" y1="419.6572" y2="439.6572"/><polygon fill="#000000" points="289.5,429.6572,293.5,439.6572,297.5,429.6572,293.5,433.6572" style="stroke:#000000;stroke-width:1.0;"/><line style="stroke:#000000;stroke-width:1.5;" x1="293.5" x2="293.5" y1="471.8105" y2="491.8105"/><polygon fill="#000000" points="289.5,481.8105,293.5,491.8105,297.5,481.8105,293.5,485.8105" style="stroke:#000000;stroke-width:1.0;"/><line style="stroke:#000000;stroke-width:1.5;" x1="293.5" x2="293.5" y1="523.9639" y2="543.9639"/><polygon fill="#000000" points="289.5,533.9639,293.5,543.9639,297.5,533.9639,293.5,537.9639" style="stroke:#000000;stroke-width:1.0;"/><line style="stroke:#000000;stroke-width:1.5;" x1="93" x2="68.5" y1="694.2705" y2="694.2705"/><line style="stroke:#000000;stroke-width:1.5;" x1="68.5" x2="68.5" y1="694.2705" y2="716.2705"/><polygon fill="#000000" points="64.5,706.2705,68.5,716.2705,72.5,706.2705,68.5,710.2705" style="stroke:#000000;stroke-width:1.0;"/><line style="stroke:#000000;stroke-width:1.5;" x1="216" x2="240.5" y1="694.2705" y2="694.2705"/><line style="stroke:#000000;stroke-width:1.5;" x1="240.5" x2="240.5" y1="694.2705" y2="716.2705"/><polygon fill="#000000" points="236.5,706.2705,240.5,716.2705,244.5,706.2705,240.5,710.2705" style="stroke:#000000;stroke-width:1.0;"/><line style="stroke:#000000;stroke-width:1.5;" x1="68.5" x2="68.5" y1="748.4238" y2="766.4238"/><line style="stroke:#000000;stroke-width:1.5;" x1="68.5" x2="142.5" y1="766.4238" y2="766.4238"/><polygon fill="#000000" points="132.5,762.4238,142.5,766.4238,132.5,770.4238,136.5,766.4238" style="stroke:#000000;stroke-width:1.0;"/><line style="stroke:#000000;stroke-width:1.5;" x1="240.5" x2="240.5" y1="748.4238" y2="766.4238"/><line style="stroke:#000000;stroke-width:1.5;" x1="240.5" x2="166.5" y1="766.4238" y2="766.4238"/><polygon fill="#000000" points="176.5,762.4238,166.5,766.4238,176.5,770.4238,172.5,766.4238" style="stroke:#000000;stroke-width:1.0;"/><line style="stroke:#000000;stroke-width:1.5;" x1="154.5" x2="154.5" y1="662.2705" y2="682.2705"/><polygon fill="#000000" points="150.5,672.2705,154.5,682.2705,158.5,672.2705,154.5,676.2705" style="stroke:#000000;stroke-width:1.0;"/><line style="stroke:#000000;stroke-width:1.5;" x1="227.5" x2="154.5" y1="608.1172" y2="608.1172"/><line style="stroke:#000000;stroke-width:1.5;" x1="154.5" x2="154.5" y1="608.1172" y2="630.1172"/><polygon fill="#000000" points="150.5,620.1172,154.5,630.1172,158.5,620.1172,154.5,624.1172" style="stroke:#000000;stroke-width:1.0;"/><line style="stroke:#000000;stroke-width:1.5;" x1="359.5" x2="432.5" y1="608.1172" y2="608.1172"/><line style="stroke:#000000;stroke-width:1.5;" x1="432.5" x2="432.5" y1="608.1172" y2="630.1172"/><polygon fill="#000000" points="428.5,620.1172,432.5,630.1172,436.5,620.1172,432.5,624.1172" style="stroke:#000000;stroke-width:1.0;"/><line style="stroke:#000000;stroke-width:1.5;" x1="154.5" x2="154.5" y1="778.4238" y2="796.4238"/><line style="stroke:#000000;stroke-width:1.5;" x1="154.5" x2="281.5" y1="796.4238" y2="796.4238"/><polygon fill="#000000" points="271.5,792.4238,281.5,796.4238,271.5,800.4238,275.5,796.4238" style="stroke:#000000;stroke-width:1.0;"/><line style="stroke:#000000;stroke-width:1.5;" x1="432.5" x2="432.5" y1="662.2705" y2="796.4238"/><line style="stroke:#000000;stroke-width:1.5;" x1="432.5" x2="305.5" y1="796.4238" y2="796.4238"/><polygon fill="#000000" points="315.5,792.4238,305.5,796.4238,315.5,800.4238,311.5,796.4238" style="stroke:#000000;stroke-width:1.0;"/><line style="stroke:#000000;stroke-width:1.5;" x1="293.5" x2="293.5" y1="576.1172" y2="596.1172"/><polygon fill="#000000" points="289.5,586.1172,293.5,596.1172,297.5,586.1172,293.5,590.1172" style="stroke:#000000;stroke-width:1.0;"/><line style="stroke:#000000;stroke-width:1.5;" x1="293.5" x2="293.5" y1="808.4238" y2="828.4238"/><polygon fill="#000000" points="289.5,818.4238,293.5,828.4238,297.5,818.4238,293.5,822.4238" style="stroke:#000000;stroke-width:1.0;"/><line style="stroke:#000000;stroke-width:1.5;" x1="293.5" x2="293.5" y1="860.5771" y2="880.5771"/><polygon fill="#000000" points="289.5,870.5771,293.5,880.5771,297.5,870.5771,293.5,874.5771" style="stroke:#000000;stroke-width:1.0;"/><line style="stroke:#000000;stroke-width:1.5;" x1="293.5" x2="293.5" y1="912.7305" y2="932.7305"/><polygon fill="#000000" points="289.5,922.7305,293.5,932.7305,297.5,922.7305,293.5,926.7305" style="stroke:#000000;stroke-width:1.0;"/><line style="stroke:#000000;stroke-width:1.5;" x1="240" x2="210.25" y1="996.8838" y2="996.8838"/><line style="stroke:#000000;stroke-width:1.5;" x1="210.25" x2="210.25" y1="996.8838" y2="1018.8838"/><polygon fill="#000000" points="206.25,1008.8838,210.25,1018.8838,214.25,1008.8838,210.25,1012.8838" style="stroke:#000000;stroke-width:1.0;"/><line style="stroke:#000000;stroke-width:1.5;" x1="347" x2="376.75" y1="996.8838" y2="996.8838"/><line style="stroke:#000000;stroke-width:1.5;" x1="376.75" x2="376.75" y1="996.8838" y2="1018.8838"/><polygon fill="#000000" points="372.75,1008.8838,376.75,1018.8838,380.75,1008.8838,376.75,1012.8838" style="stroke:#000000;stroke-width:1.0;"/><line style="stroke:#000000;stroke-width:1.5;" x1="210.25" x2="210.25" y1="1051.0371" y2="1069.0371"/><line style="stroke:#000000;stroke-width:1.5;" x1="210.25" x2="281.5" y1="1069.0371" y2="1069.0371"/><polygon fill="#000000" points="271.5,1065.0371,281.5,1069.0371,271.5,1073.0371,275.5,1069.0371" style="stroke:#000000;stroke-width:1.0;"/><line style="stroke:#000000;stroke-width:1.5;" x1="376.75" x2="376.75" y1="1051.0371" y2="1069.0371"/><line style="stroke:#000000;stroke-width:1.5;" x1="376.75" x2="305.5" y1="1069.0371" y2="1069.0371"/><polygon fill="#000000" points="315.5,1065.0371,305.5,1069.0371,315.5,1073.0371,311.5,1069.0371" style="stroke:#000000;stroke-width:1.0;"/><line style="stroke:#000000;stroke-width:1.5;" x1="293.5" x2="293.5" y1="964.8838" y2="984.8838"/><polygon fill="#000000" points="289.5,974.8838,293.5,984.8838,297.5,974.8838,293.5,978.8838" style="stroke:#000000;stroke-width:1.0;"/><line style="stroke:#000000;stroke-width:1.5;" x1="365.5" x2="365.5" y1="1167.1904" y2="1187.1904"/><polygon fill="#000000" points="361.5,1177.1904,365.5,1187.1904,369.5,1177.1904,365.5,1181.1904" style="stroke:#000000;stroke-width:1.0;"/><line style="stroke:#000000;stroke-width:1.5;" x1="365.5" x2="365.5" y1="1219.3438" y2="1239.3438"/><polygon fill="#000000" points="361.5,1229.3438,365.5,1239.3438,369.5,1229.3438,365.5,1233.3438" style="stroke:#000000;stroke-width:1.0;"/><line style="stroke:#000000;stroke-width:1.5;" x1="238.5" x2="221.5" y1="1113.0371" y2="1113.0371"/><line style="stroke:#000000;stroke-width:1.5;" x1="221.5" x2="221.5" y1="1113.0371" y2="1135.0371"/><polygon fill="#000000" points="217.5,1125.0371,221.5,1135.0371,225.5,1125.0371,221.5,1129.0371" style="stroke:#000000;stroke-width:1.0;"/><line style="stroke:#000000;stroke-width:1.5;" x1="348.5" x2="365.5" y1="1113.0371" y2="1113.0371"/><line style="stroke:#000000;stroke-width:1.5;" x1="365.5" x2="365.5" y1="1113.0371" y2="1135.0371"/><polygon fill="#000000" points="361.5,1125.0371,365.5,1135.0371,369.5,1125.0371,365.5,1129.0371" style="stroke:#000000;stroke-width:1.0;"/><line style="stroke:#000000;stroke-width:1.5;" x1="221.5" x2="221.5" y1="1167.1904" y2="1273.3438"/><line style="stroke:#000000;stroke-width:1.5;" x1="221.5" x2="446.75" y1="1273.3438" y2="1273.3438"/><line style="stroke:#000000;stroke-width:1.5;" x1="293.5" x2="293.5" y1="1081.0371" y2="1101.0371"/><polygon fill="#000000" points="289.5,1091.0371,293.5,1101.0371,297.5,1091.0371,293.5,1095.0371" style="stroke:#000000;stroke-width:1.0;"/><line style="stroke:#000000;stroke-width:1.5;" x1="600" x2="600" y1="367.5039" y2="387.5039"/><polygon fill="#000000" points="596,377.5039,600,387.5039,604,377.5039,600,381.5039" style="stroke:#000000;stroke-width:1.0;"/><line style="stroke:#000000;stroke-width:1.5;" x1="401.25" x2="293.5" y1="313.3506" y2="313.3506"/><line style="stroke:#000000;stroke-width:1.5;" x1="293.5" x2="293.5" y1="313.3506" y2="335.3506"/><polygon fill="#000000" points="289.5,325.3506,293.5,335.3506,297.5,325.3506,293.5,329.3506" style="stroke:#000000;stroke-width:1.0;"/><line style="stroke:#000000;stroke-width:1.5;" x1="492.25" x2="600" y1="313.3506" y2="313.3506"/><line style="stroke:#000000;stroke-width:1.5;" x1="600" x2="600" y1="313.3506" y2="335.3506"/><polygon fill="#000000" points="596,325.3506,600,335.3506,604,325.3506,600,329.3506" style="stroke:#000000;stroke-width:1.0;"/><line style="stroke:#000000;stroke-width:1.5;" x1="446.75" x2="446.75" y1="281.3506" y2="301.3506"/><polygon fill="#000000" points="442.75,291.3506,446.75,301.3506,450.75,291.3506,446.75,295.3506" style="stroke:#000000;stroke-width:1.0;"/><!--SRC=[TLDTRvj047pdLsoL5-UbIYfLgin3bVWZYfIchd6QvpCiSFBb5jqjTkYlxnwOcDeKImZDpUpipfu_SObl29LHsaP-fssbd7g3hKftXQFQPZCovE1GQiR1kKfPxpKtz-GoT9jIfpkBtiEN_tAwEbVVscUCTUPujRW9lo7JEJgSh6u_VnqfioJBYVw3S7iJHQpP8DmTZs2kLI7SAFAi74VHzCMZWvyLMW-pKl6ME1Pqhht4qS0hcfGacn_YfWgCUy6cgT0FqT_Aw4mnmgEjwb12vp1fmGxvVWsIieL9W_uw0fWcQ3DWWZ2pVCQ21NZbi7AKXk4s-Cuz_FoqWZkhJEErxx7732thl143bgyUNhopaoHW8OUiiQU7VZeYh36bmaf0sNbN8lzLevEO5AkjyXYtOFiA1TReAx8UOHcMTAaM_HhPQTmZzDok11fHJInzy1xGeWk1BPKnuQgT2socyzxzN_KqAUa0SynLRVYqX9CcnF141Sp8xj5vnPfi7q-R-ySSie2mp_wmN_kmbMDsxTeJAULpFHfSC5oHbynb-2LY5eQABviFl6Sir2Nlr7qmbEPPsnhRQpdYDtOFBvDIOfB8yJ61mOmFHDcsEQRjcQfX2yCoNTmB-UUveLChwGH_0G00]--></g></svg>