<?xml version="1.0" encoding="us-ascii" standalone="no"?><svg xmlns="http://www.w3.org/2000/svg" xmlns:xlink="http://www.w3.org/1999/xlink" contentStyleType="text/css" height="886px" preserveAspectRatio="none" style="width:1686px;height:886px;background:#DF93D7;" version="1.1" viewBox="0 0 1686 886" width="1686px" zoomAndPan="magnify"><defs/><g><rect fill="#DF93D7" height="886" style="stroke:none;stroke-width:1.0;" width="1686" x="0" y="0"/><text fill="#000000" font-family="Verdana" font-size="22" font-weight="bold" lengthAdjust="spacing" textLength="449" x="614" y="37.1182">Chatbot System - Use Case Diagram</text><text fill="#000000" font-family="Verdana" font-size="22" font-weight="bold" lengthAdjust="spacing" textLength="8" x="834.5" y="63.8555">&#160;</text><!--cluster Chatbot Application--><g id="cluster_Chatbot Application"><rect fill="#FFFFFF" height="695" rx="2.5" ry="2.5" style="stroke:#000000;stroke-width:1.0;" width="1578" x="102" y="86.4746"/><text fill="#000000" font-family="Verdana" font-size="14" font-weight="bold" lengthAdjust="spacing" textLength="153" x="814.5" y="102.5498">Chatbot Application</text></g><g id="elem_UC1"><ellipse cx="195.0611" cy="137.6868" fill="#FFFFFF" rx="64.0611" ry="15.2122" style="stroke:#000000;stroke-width:2.0;"/><text fill="#000000" font-family="Verdana" font-size="14" lengthAdjust="spacing" textLength="74" x="155.0611" y="141.9744">Start Chat</text></g><g id="elem_UC2"><ellipse cx="195.2319" cy="204.621" fill="#FFFFFF" rx="73.7319" ry="17.1464" style="stroke:#000000;stroke-width:2.0;"/><text fill="#000000" font-family="Verdana" font-size="14" lengthAdjust="spacing" textLength="101" x="144.0219" y="208.3775">Send Message</text></g><g id="elem_UC3"><ellipse cx="194.9495" cy="273.4645" fill="#FFFFFF" rx="72.9495" ry="16.9899" style="stroke:#000000;stroke-width:2.0;"/><text fill="#000000" font-family="Verdana" font-size="14" lengthAdjust="spacing" textLength="99" x="144.3418" y="277.3214">Get Response</text></g><g id="elem_UC4"><ellipse cx="195.0035" cy="341.5753" fill="#FFFFFF" rx="68.5035" ry="16.1007" style="stroke:#000000;stroke-width:2.0;"/><text fill="#000000" font-family="Verdana" font-size="14" lengthAdjust="spacing" textLength="87" x="148.5035" y="345.8629">View History</text></g><g id="elem_UC5"><ellipse cx="194.8393" cy="409.5425" fill="#FFFFFF" rx="73.3393" ry="17.0679" style="stroke:#000000;stroke-width:2.0;"/><text fill="#000000" font-family="Verdana" font-size="14" lengthAdjust="spacing" textLength="100" x="143.9315" y="413.3494">Give Feedback</text></g><g id="elem_UC6"><ellipse cx="194.8079" cy="476.5855" fill="#FFFFFF" rx="57.8079" ry="15.1109" style="stroke:#000000;stroke-width:2.0;"/><text fill="#000000" font-family="Verdana" font-size="14" lengthAdjust="spacing" textLength="65" x="159.3079" y="480.8731">End Chat</text></g><g id="elem_UC7"><ellipse cx="477.1" cy="730.5946" fill="#FFFFFF" rx="81.1" ry="18.62" style="stroke:#000000;stroke-width:2.0;"/><text fill="#000000" font-family="Verdana" font-size="14" lengthAdjust="spacing" textLength="119" x="417.6" y="734.1625">Process Message</text></g><g id="elem_UC8"><ellipse cx="755.7319" cy="730.621" fill="#FFFFFF" rx="73.7319" ry="17.1464" style="stroke:#000000;stroke-width:2.0;"/><text fill="#000000" font-family="Verdana" font-size="14" lengthAdjust="spacing" textLength="101" x="704.5219" y="734.3775">Identify Intent</text></g><g id="elem_UC9"><ellipse cx="1038.3384" cy="730.4423" fill="#FFFFFF" rx="85.3384" ry="19.4677" style="stroke:#000000;stroke-width:2.0;"/><text fill="#000000" font-family="Verdana" font-size="14" lengthAdjust="spacing" textLength="129" x="973.8384" y="734.0102">Search Knowledge</text></g><g id="elem_UC10"><ellipse cx="1337.2228" cy="730.7192" fill="#FFFFFF" rx="89.2228" ry="20.2446" style="stroke:#000000;stroke-width:2.0;"/><text fill="#000000" font-family="Verdana" font-size="14" lengthAdjust="spacing" textLength="138" x="1268.2228" y="734.287">Generate Response</text></g><g id="elem_UC11"><ellipse cx="1607.0709" cy="740.5798" fill="#FFFFFF" rx="57.0709" ry="15.1052" style="stroke:#000000;stroke-width:2.0;"/><text fill="#000000" font-family="Verdana" font-size="14" lengthAdjust="spacing" textLength="64" x="1572.0709" y="744.8674">Log Data</text></g><g id="elem_UC12"><ellipse cx="194.9568" cy="544.266" fill="#FFFFFF" rx="76.9568" ry="17.7914" style="stroke:#000000;stroke-width:2.0;"/><text fill="#000000" font-family="Verdana" font-size="14" lengthAdjust="spacing" textLength="109" x="140.4568" y="547.8338">Manage Intents</text></g><g id="elem_UC13"><ellipse cx="195.0671" cy="613.588" fill="#FFFFFF" rx="66.0671" ry="15.6134" style="stroke:#000000;stroke-width:2.0;"/><text fill="#000000" font-family="Verdana" font-size="14" lengthAdjust="spacing" textLength="80" x="152.0671" y="617.8756">Train Model</text></g><g id="elem_UC14"><ellipse cx="194.9495" cy="681.4645" fill="#FFFFFF" rx="72.9495" ry="16.9899" style="stroke:#000000;stroke-width:2.0;"/><text fill="#000000" font-family="Verdana" font-size="14" lengthAdjust="spacing" textLength="99" x="144.3418" y="685.3214">View Analytics</text></g><g id="elem_UC15"><ellipse cx="195.0035" cy="749.5753" fill="#FFFFFF" rx="68.5035" ry="16.1007" style="stroke:#000000;stroke-width:2.0;"/><text fill="#000000" font-family="Verdana" font-size="14" lengthAdjust="spacing" textLength="87" x="148.5035" y="753.8629">Manage FAQ</text></g><!--entity User--><g id="elem_User"><ellipse cx="33" cy="277.4746" fill="#FFFFFF" rx="8" ry="8" style="stroke:#000000;stroke-width:2.0;"/><path d="M33,285.4746 L33,312.4746 M20,293.4746 L46,293.4746 M33,312.4746 L20,327.4746 M33,312.4746 L46,327.4746 " fill="none" style="stroke:#000000;stroke-width:2.0;"/><text fill="#000000" font-family="Verdana" font-size="14" lengthAdjust="spacing" textLength="32" x="17" y="344.5498">User</text></g><!--entity Admin--><g id="elem_Admin"><ellipse cx="33" cy="623.4746" fill="#FFFFFF" rx="8" ry="8" style="stroke:#000000;stroke-width:2.0;"/><path d="M33,631.4746 L33,658.4746 M20,639.4746 L46,639.4746 M33,658.4746 L20,673.4746 M33,658.4746 L46,673.4746 " fill="none" style="stroke:#000000;stroke-width:2.0;"/><text fill="#000000" font-family="Verdana" font-size="14" lengthAdjust="spacing" textLength="44" x="11" y="690.5498">Admin</text></g><!--entity System--><g id="elem_System"><ellipse cx="195" cy="810.4746" fill="#FFFFFF" rx="8" ry="8" style="stroke:#000000;stroke-width:2.0;"/><path d="M195,818.4746 L195,845.4746 M182,826.4746 L208,826.4746 M195,845.4746 L182,860.4746 M195,845.4746 L208,860.4746 " fill="none" style="stroke:#000000;stroke-width:2.0;"/><text fill="#000000" font-family="Verdana" font-size="14" lengthAdjust="spacing" textLength="53" x="168.5" y="877.5498">System</text></g><!--link User to UC1--><g id="link_User_UC1"><path d="M41.96,267.4146 C50.07,236.6246 65.61,195.1446 94,169.4746 C106.98,157.7346 118.5189,151.946 135.0789,147.236 " fill="none" id="User-to-UC1" style="stroke:#000000;stroke-width:2.0;"/><polygon fill="#000000" points="140.85,145.5946,131.0991,144.2093,136.0407,146.9625,133.2876,151.9041,140.85,145.5946" style="stroke:#000000;stroke-width:2.0;"/></g><!--link User to UC2--><g id="link_User_UC2"><path d="M49.14,284.4646 C60.03,269.5046 75.95,250.6046 94,238.4746 C108.46,228.7646 120.2442,223.3992 136.5342,218.1992 " fill="none" id="User-to-UC2" style="stroke:#000000;stroke-width:2.0;"/><polygon fill="#000000" points="142.25,216.3746,132.4598,215.3009,137.4868,217.8951,134.8926,222.922,142.25,216.3746" style="stroke:#000000;stroke-width:2.0;"/></g><!--link User to UC3--><g id="link_User_UC3"><path d="M49.05,304.2746 C69.82,299.8646 102.4809,292.9212 134.5909,286.1012 " fill="none" id="User-to-UC3" style="stroke:#000000;stroke-width:2.0;"/><polygon fill="#000000" points="140.46,284.8546,130.8253,282.8117,135.5691,285.8934,132.4874,290.6372,140.46,284.8546" style="stroke:#000000;stroke-width:2.0;"/></g><!--link User to UC4--><g id="link_User_UC4"><path d="M49.05,310.6746 C70.52,315.2346 105.1009,322.588 137.8209,329.538 " fill="none" id="User-to-UC4" style="stroke:#000000;stroke-width:2.0;"/><polygon fill="#000000" points="143.69,330.7846,135.7175,325.0019,138.7991,329.7457,134.0553,332.8274,143.69,330.7846" style="stroke:#000000;stroke-width:2.0;"/></g><!--link User to UC5--><g id="link_User_UC5"><path d="M49.07,329.4346 C60.04,343.9746 76.08,362.5146 94,374.4746 C108.92,384.4346 121.273,390.0326 137.913,395.4326 " fill="none" id="User-to-UC5" style="stroke:#000000;stroke-width:2.0;"/><polygon fill="#000000" points="143.62,397.2846,136.2942,390.7019,138.8642,395.7412,133.8248,398.3112,143.62,397.2846" style="stroke:#000000;stroke-width:2.0;"/></g><!--link User to UC6--><g id="link_User_UC6"><path d="M42.35,347.5146 C50.62,377.7546 66.2,418.2346 94,443.4746 C108.01,456.1946 121.25,462.4512 138.95,467.2612 " fill="none" id="User-to-UC6" style="stroke:#000000;stroke-width:2.0;"/><polygon fill="#000000" points="144.74,468.8346,137.1039,462.6144,139.915,467.5234,135.006,470.3345,144.74,468.8346" style="stroke:#000000;stroke-width:2.0;"/></g><!--link UC2 to UC7--><g id="link_UC2_UC7"><path d="M240.96,217.9346 C252.18,222.9646 263.43,229.6646 272,238.4746 C413.2,383.6346 461.1786,634.5673 472.3686,705.7773 " fill="none" id="UC2-to-UC7" style="stroke:#000000;stroke-width:2.0;stroke-dasharray:7.0,7.0;"/><polygon fill="#000000" points="473.3,711.7046,475.8544,702.1928,472.5238,706.7652,467.9514,703.4347,473.3,711.7046" style="stroke:#000000;stroke-width:2.0;"/><text fill="#000000" font-family="Verdana" font-size="13" lengthAdjust="spacing" textLength="62" x="303" y="279.5444">&#171;include&#187;</text></g><!--link UC7 to UC8--><g id="link_UC7_UC8"><path d="M558.35,730.4746 C597.41,730.4746 638,730.4746 675.98,730.4746 " fill="none" id="UC7-to-UC8" style="stroke:#000000;stroke-width:2.0;stroke-dasharray:7.0,7.0;"/><polygon fill="#000000" points="681.98,730.4746,672.98,726.4746,676.98,730.4746,672.98,734.4746,681.98,730.4746" style="stroke:#000000;stroke-width:2.0;"/><text fill="#000000" font-family="Verdana" font-size="13" lengthAdjust="spacing" textLength="62" x="589" y="727.5444">&#171;include&#187;</text></g><!--link UC8 to UC9--><g id="link_UC8_UC9"><path d="M829.23,730.4746 C867.04,730.4746 907.46,730.4746 946.87,730.4746 " fill="none" id="UC8-to-UC9" style="stroke:#000000;stroke-width:2.0;stroke-dasharray:7.0,7.0;"/><polygon fill="#000000" points="952.87,730.4746,943.87,726.4746,947.87,730.4746,943.87,734.4746,952.87,730.4746" style="stroke:#000000;stroke-width:2.0;"/><text fill="#000000" font-family="Verdana" font-size="13" lengthAdjust="spacing" textLength="62" x="860" y="727.5444">&#171;include&#187;</text></g><!--link UC9 to UC10--><g id="link_UC9_UC10"><path d="M1124.07,730.4746 C1162.84,730.4746 1202.78,730.4746 1241.96,730.4746 " fill="none" id="UC9-to-UC10" style="stroke:#000000;stroke-width:2.0;stroke-dasharray:7.0,7.0;"/><polygon fill="#000000" points="1247.96,730.4746,1238.96,726.4746,1242.96,730.4746,1238.96,734.4746,1247.96,730.4746" style="stroke:#000000;stroke-width:2.0;"/><text fill="#000000" font-family="Verdana" font-size="13" lengthAdjust="spacing" textLength="62" x="1155" y="727.5444">&#171;include&#187;</text></g><!--link UC10 to UC11--><g id="link_UC10_UC11"><path d="M1425.01,733.7246 C1466.13,735.2546 1508.0042,736.8209 1544.1842,738.1709 " fill="none" id="UC10-to-UC11" style="stroke:#000000;stroke-width:2.0;stroke-dasharray:7.0,7.0;"/><polygon fill="#000000" points="1550.18,738.3946,1541.3354,734.0618,1545.1835,738.2082,1541.0371,742.0562,1550.18,738.3946" style="stroke:#000000;stroke-width:2.0;"/><text fill="#000000" font-family="Verdana" font-size="13" lengthAdjust="spacing" textLength="62" x="1457" y="732.5444">&#171;include&#187;</text></g><!--link Admin to UC12--><g id="link_Admin_UC12"><path d="M55.07,620.5846 C65.38,606.6346 78.85,591.1546 94,580.4746 C108.17,570.4746 119.741,564.9109 135.901,559.4009 " fill="none" id="Admin-to-UC12" style="stroke:#000000;stroke-width:2.0;"/><polygon fill="#000000" points="141.58,557.4646,131.7707,556.5831,136.8475,559.0782,134.3524,564.1551,141.58,557.4646" style="stroke:#000000;stroke-width:2.0;"/></g><!--link Admin to UC13--><g id="link_Admin_UC13"><path d="M55.25,648.1646 C79.05,642.2146 112.4889,633.8489 143.1889,626.1789 " fill="none" id="Admin-to-UC13" style="stroke:#000000;stroke-width:2.0;"/><polygon fill="#000000" points="149.01,624.7246,139.3088,623.0254,144.1591,625.9365,141.2479,630.7868,149.01,624.7246" style="stroke:#000000;stroke-width:2.0;"/></g><!--link Admin to UC14--><g id="link_Admin_UC14"><path d="M55.25,657.1946 C75.82,660.7946 102.0299,665.3799 130.1899,670.3099 " fill="none" id="Admin-to-UC14" style="stroke:#000000;stroke-width:2.0;"/><polygon fill="#000000" points="136.1,671.3446,127.9246,665.8525,131.1749,670.4824,126.545,673.7326,136.1,671.3446" style="stroke:#000000;stroke-width:2.0;"/></g><!--link Admin to UC15--><g id="link_Admin_UC15"><path d="M55.04,680.4746 C65.63,692.5746 79.32,706.1746 94,715.4746 C109.8,725.4846 123.1465,731.1464 140.3965,736.4664 " fill="none" id="Admin-to-UC15" style="stroke:#000000;stroke-width:2.0;"/><polygon fill="#000000" points="146.13,738.2346,138.7086,731.7599,141.3521,736.7611,136.3509,739.4046,146.13,738.2346" style="stroke:#000000;stroke-width:2.0;"/></g><!--link System to UC7--><g id="link_System_UC7"><path d="M221.84,830.3246 C270.71,811.1246 371.4357,771.5591 429.8857,748.5891 " fill="none" id="System-to-UC7" style="stroke:#000000;stroke-width:2.0;"/><polygon fill="#000000" points="435.47,746.3946,425.6306,745.9636,430.8164,748.2234,428.5566,753.4093,435.47,746.3946" style="stroke:#000000;stroke-width:2.0;"/></g><!--link System to UC11--><g id="link_System_UC11"><path d="M221.86,839.7046 C271.25,838.3046 382.41,835.4746 476,835.4746 C476,835.4746 476,835.4746 1338,835.4746 C1434.01,835.4746 1533.6577,783.6755 1578.4777,757.3255 " fill="none" id="System-to-UC11" style="stroke:#000000;stroke-width:2.0;"/><polygon fill="#000000" points="1583.65,754.2846,1573.8642,755.3977,1579.3397,756.8187,1577.9187,762.2941,1583.65,754.2846" style="stroke:#000000;stroke-width:2.0;"/></g><!--SRC=[VLDDRnCn4BtxLmpbK3YawkQZIL0LAQG4AeW4jEN4nRKdkrPsxPNj44KL_ntRQnTl8rNQW-Uz-NXlx7rZAsmGsfeAISnEo9Pgsi0ZPRjIgxtaArKh3M_vTZxYqonZRv1HWn-LvgZlAy5s4es1OPP2cLNwjOJMJQ7bwpsqLeUS8bRO6c5LKVkeBDmTZSK61l1W7EW4mOsWfQlyBGcfSMl1Aj2Yh2nmeP5PeHmHbFaI7OzBtZZ_tRbhIOZFfh9qmyxIj6NRre9Ht-GCdWY0-yvXfJI6Ph3Uop31EFpTdQNQ1g7lWHfuM1K1HSbXuxmuun4VUlmpMlY9fdN52Hzv_9V00tmHnYaxHdmSyiKVX3KYzrSLYOadFhd-sT2hf39kgYVnkrRChxMlP-gfMuxIYkqHRgLrfqZDEWjKimg-IdMeaJ-NpJiR4ZMr-D9BSUdPRwg46sff0eiaBko_hsr3fPCKnvjK4NPrhzrhXOtYM2Vy_wwMajP7AzXpoJZhjbx-IB1V5lbBo7btTKn9YN5w00Q3HRYpB1ZcmIWFndamoOChFo7klktMBMH9N3EukF09K_W0rzT2idhFSR4W7kcOsGapYypyX9b7fhWyeHmKkU85HzBYS_CT4jqF- -6e7uxxuIItYdghT6Dop-bV3TdJVkYUmZy0]--></g></svg>