<?xml version="1.0" encoding="us-ascii" standalone="no"?><svg xmlns="http://www.w3.org/2000/svg" xmlns:xlink="http://www.w3.org/1999/xlink" contentStyleType="text/css" height="1077px" preserveAspectRatio="none" style="width:490px;height:1077px;background:#EADEAF;" version="1.1" viewBox="0 0 490 1077" width="490px" zoomAndPan="magnify"><defs/><g><rect fill="#EADEAF" height="1077" style="stroke:none;stroke-width:1.0;" width="490" x="0" y="0"/><text fill="#000000" font-family="Verdana" font-size="22" font-weight="bold" lengthAdjust="spacing" textLength="449" x="15" y="37.1182">Chatbot System - Use Case Diagram</text><text fill="#000000" font-family="Verdana" font-size="22" font-weight="bold" lengthAdjust="spacing" textLength="8" x="239.5" y="63.8555">&#160;</text><!--cluster Chatbot Application--><g id="cluster_Chatbot Application"><rect fill="#FFFFFF" height="985" rx="2.5" ry="2.5" style="stroke:#000000;stroke-width:2.0;" width="169" x="247.5" y="86.4746"/><text fill="#000000" font-family="Verdana" font-size="14" font-weight="bold" lengthAdjust="spacing" textLength="153" x="255.5" y="102.5498">Chatbot Application</text></g><g id="elem_UC1"><ellipse cx="332.0921" cy="195.393" fill="#FFFFFF" rx="45.0921" ry="11.4184" style="stroke:#000000;stroke-width:2.0;"/><text fill="#000000" font-family="Verdana" font-size="9" lengthAdjust="spacing" textLength="52" x="306.0921" y="196.9724">Start Chat</text></g><g id="elem_UC2"><ellipse cx="332.0371" cy="135.582" fill="#FFFFFF" rx="53.5371" ry="13.1074" style="stroke:#000000;stroke-width:2.0;"/><text fill="#000000" font-family="Verdana" font-size="9" lengthAdjust="spacing" textLength="73" x="295.5371" y="137.1614">Send Message</text></g><g id="elem_UC3"><ellipse cx="331.7823" cy="255.3311" fill="#FFFFFF" rx="52.2823" ry="12.8565" style="stroke:#000000;stroke-width:2.0;"/><text fill="#000000" font-family="Verdana" font-size="9" lengthAdjust="spacing" textLength="70" x="296.7823" y="256.9104">Get Response</text></g><g id="elem_UC4"><ellipse cx="331.8161" cy="316.3378" fill="#FFFFFF" rx="49.8161" ry="12.3632" style="stroke:#000000;stroke-width:2.0;"/><text fill="#000000" font-family="Verdana" font-size="9" lengthAdjust="spacing" textLength="64" x="299.8161" y="317.9172">View History</text></g><g id="elem_UC5"><ellipse cx="331.9583" cy="377.6663" fill="#FFFFFF" rx="53.9583" ry="13.1917" style="stroke:#000000;stroke-width:2.0;"/><text fill="#000000" font-family="Verdana" font-size="9" lengthAdjust="spacing" textLength="74" x="294.9583" y="379.2456">Give Feedback</text></g><g id="elem_UC6"><ellipse cx="331.8591" cy="436.4464" fill="#FFFFFF" rx="42.8591" ry="10.9718" style="stroke:#000000;stroke-width:2.0;"/><text fill="#000000" font-family="Verdana" font-size="9" lengthAdjust="spacing" textLength="46" x="308.8591" y="438.0258">End Chat</text></g><g id="elem_UC7"><ellipse cx="331.9282" cy="738.4602" fill="#FFFFFF" rx="60.4282" ry="14.4856" style="stroke:#000000;stroke-width:2.0;"/><text fill="#000000" font-family="Verdana" font-size="9" lengthAdjust="spacing" textLength="89" x="287.4282" y="740.0396">Process Message</text></g><g id="elem_UC8"><ellipse cx="332.0371" cy="659.582" fill="#FFFFFF" rx="53.5371" ry="13.1074" style="stroke:#000000;stroke-width:2.0;"/><text fill="#000000" font-family="Verdana" font-size="9" lengthAdjust="spacing" textLength="73" x="295.5371" y="661.1614">Identify Intent</text></g><g id="elem_UC9"><ellipse cx="331.8095" cy="580.6365" fill="#FFFFFF" rx="61.3095" ry="14.6619" style="stroke:#000000;stroke-width:2.0;"/><text fill="#000000" font-family="Verdana" font-size="9" lengthAdjust="spacing" textLength="91" x="286.3095" y="582.2159">Search Knowledge</text></g><g id="elem_UC10"><ellipse cx="331.9227" cy="498.2591" fill="#FFFFFF" rx="64.4227" ry="15.2845" style="stroke:#000000;stroke-width:2.0;"/><text fill="#000000" font-family="Verdana" font-size="9" lengthAdjust="spacing" textLength="98" x="282.9227" y="499.8385">Generate Response</text></g><g id="elem_UC11"><ellipse cx="331.9968" cy="799.374" fill="#FFFFFF" rx="42.4968" ry="10.8994" style="stroke:#000000;stroke-width:2.0;"/><text fill="#000000" font-family="Verdana" font-size="9" lengthAdjust="spacing" textLength="45" x="309.4968" y="800.9533">Log Data</text></g><g id="elem_UC12"><ellipse cx="332.0848" cy="859.5916" fill="#FFFFFF" rx="56.0848" ry="13.617" style="stroke:#000000;stroke-width:2.0;"/><text fill="#000000" font-family="Verdana" font-size="9" lengthAdjust="spacing" textLength="79" x="292.5848" y="861.1709">Manage Intents</text></g><g id="elem_UC13"><ellipse cx="331.8107" cy="920.4367" fill="#FFFFFF" rx="47.8107" ry="11.9621" style="stroke:#000000;stroke-width:2.0;"/><text fill="#000000" font-family="Verdana" font-size="9" lengthAdjust="spacing" textLength="59" x="302.3107" y="922.0161">Train Model</text></g><g id="elem_UC14"><ellipse cx="331.8809" cy="981.2508" fill="#FFFFFF" rx="54.3809" ry="13.2762" style="stroke:#000000;stroke-width:2.0;"/><text fill="#000000" font-family="Verdana" font-size="9" lengthAdjust="spacing" textLength="75" x="294.3809" y="982.8301">View Analytics</text></g><g id="elem_UC15"><ellipse cx="332.2228" cy="1042.4192" fill="#FFFFFF" rx="50.2228" ry="12.4446" style="stroke:#000000;stroke-width:2.0;"/><text fill="#000000" font-family="Verdana" font-size="9" lengthAdjust="spacing" textLength="65" x="299.7228" y="1043.9985">Manage FAQ</text></g><!--entity User--><g id="elem_User"><ellipse cx="111" cy="249.4746" fill="#FFFFFF" rx="8" ry="8" style="stroke:#000000;stroke-width:2.0;"/><path d="M111,257.4746 L111,284.4746 M98,265.4746 L124,265.4746 M111,284.4746 L98,299.4746 M111,284.4746 L124,299.4746 " fill="none" style="stroke:#000000;stroke-width:2.0;"/><text fill="#000000" font-family="Verdana" font-size="14" lengthAdjust="spacing" textLength="32" x="95" y="316.5498">User</text></g><!--entity Sys--><g id="elem_Sys"><ellipse cx="111" cy="739.4746" fill="#FFFFFF" rx="8" ry="8" style="stroke:#000000;stroke-width:2.0;"/><path d="M111,747.4746 L111,774.4746 M98,755.4746 L124,755.4746 M111,774.4746 L98,789.4746 M111,774.4746 L124,789.4746 " fill="none" style="stroke:#000000;stroke-width:2.0;"/><text fill="#000000" font-family="Verdana" font-size="14" lengthAdjust="spacing" textLength="53" x="84.5" y="806.5498">System</text></g><!--entity Adm--><g id="elem_Adm"><ellipse cx="111" cy="925.4746" fill="#FFFFFF" rx="8" ry="8" style="stroke:#000000;stroke-width:2.0;"/><path d="M111,933.4746 L111,960.4746 M98,941.4746 L124,941.4746 M111,960.4746 L98,975.4746 M111,960.4746 L124,975.4746 " fill="none" style="stroke:#000000;stroke-width:2.0;"/><text fill="#000000" font-family="Verdana" font-size="14" lengthAdjust="spacing" textLength="44" x="89" y="992.5498">Admin</text></g><!--link User to UC1--><g id="link_User_UC1"><path d="M127.38,268.1746 C138.18,260.6446 153.19,250.9846 167.5,244.4746 C210.52,224.9046 257.5586,212.065 291.3186,204.145 " fill="none" id="User-to-UC1" style="stroke:#000000;stroke-width:1.5;"/><polygon fill="#000000" points="297.16,202.7746,287.4843,200.9359,292.2922,203.9166,289.3115,208.7244,297.16,202.7746" style="stroke:#000000;stroke-width:1.5;"/></g><!--link User to UC2--><g id="link_User_UC2"><path d="M127.16,255.1246 C137.3,240.1446 151.66,221.2546 167.5,207.4746 C204.59,175.2146 252.6738,156.9877 288.3038,146.5077 " fill="none" id="User-to-UC2" style="stroke:#000000;stroke-width:1.5;"/><polygon fill="#000000" points="294.06,144.8146,284.297,143.5168,289.2632,146.2255,286.5545,151.1917,294.06,144.8146" style="stroke:#000000;stroke-width:1.5;"/></g><!--link User to UC3--><g id="link_User_UC3"><path d="M127.05,277.8246 C158.85,274.3446 228.0257,266.758 277.6857,261.318 " fill="none" id="User-to-UC3" style="stroke:#000000;stroke-width:1.5;"/><polygon fill="#000000" points="283.65,260.6646,274.2679,257.6684,278.6797,261.2091,275.1391,265.6209,283.65,260.6646" style="stroke:#000000;stroke-width:1.5;"/></g><!--link User to UC4--><g id="link_User_UC4"><path d="M127.05,282.0146 C160.2,287.6146 234.554,300.174 283.924,308.524 " fill="none" id="User-to-UC4" style="stroke:#000000;stroke-width:1.5;"/><polygon fill="#000000" points="289.84,309.5246,281.6331,304.0798,284.91,308.6908,280.299,311.9677,289.84,309.5246" style="stroke:#000000;stroke-width:1.5;"/></g><!--link User to UC5--><g id="link_User_UC5"><path d="M127.06,308.9046 C136.54,324.3846 150.26,342.2246 167.5,352.4746 C200.82,372.2846 238.4733,377.9442 272.2833,379.0742 " fill="none" id="User-to-UC5" style="stroke:#000000;stroke-width:1.5;"/><polygon fill="#000000" points="278.28,379.2746,269.4186,374.9762,273.2828,379.1076,269.1514,382.9717,278.28,379.2746" style="stroke:#000000;stroke-width:1.5;"/></g><!--link User to UC6--><g id="link_User_UC6"><path d="M125.43,319.5946 C134.37,340.8746 148.09,365.9446 167.5,382.4746 C203.12,412.8046 250.3679,425.2709 286.3179,431.1209 " fill="none" id="User-to-UC6" style="stroke:#000000;stroke-width:1.5;"/><polygon fill="#000000" points="292.24,432.0846,283.9993,426.691,287.3049,431.2815,282.7144,434.5872,292.24,432.0846" style="stroke:#000000;stroke-width:1.5;"/></g><!--link UC2 to UC7--><g id="link_UC2_UC7"><path d="M285.44,142.0846 C269.05,146.5446 251.69,153.9946 239.5,166.4746 C186.99,220.2146 200.74,253.6846 189.5,327.9746 C165.24,488.3446 146.07,556.8946 239.5,689.4746 C252.27,707.5946 268.3013,717.3659 287.4213,724.9359 " fill="none" id="UC2-to-UC7" style="stroke:#000000;stroke-width:1.5;stroke-dasharray:7.0,7.0;"/><polygon fill="#000000" points="293,727.1446,286.1045,720.1124,288.3511,725.304,283.1595,727.5507,293,727.1446" style="stroke:#000000;stroke-width:1.5;"/><text fill="#000000" font-family="Verdana" font-size="13" lengthAdjust="spacing" textLength="62" x="168.5" y="342.0444">&#171;include&#187;</text></g><!--link UC7 to UC8--><g id="link_UC7_UC8"><path d="M332,723.6146 C332,708.9546 332,692.7546 332,678.6946 " fill="none" id="UC7-to-UC8" style="stroke:#000000;stroke-width:1.5;stroke-dasharray:7.0,7.0;"/><polygon fill="#000000" points="332,672.6946,328,681.6946,332,677.6946,336,681.6946,332,672.6946" style="stroke:#000000;stroke-width:1.5;"/><text fill="#000000" font-family="Verdana" font-size="13" lengthAdjust="spacing" textLength="62" x="289.5" y="703.7944">&#171;include&#187;</text></g><!--link UC8 to UC9--><g id="link_UC8_UC9"><path d="M332,646.4246 C332,632.3146 332,615.8646 332,601.1546 " fill="none" id="UC8-to-UC9" style="stroke:#000000;stroke-width:1.5;stroke-dasharray:7.0,7.0;"/><polygon fill="#000000" points="332,595.1546,328,604.1546,332,600.1546,336,604.1546,332,595.1546" style="stroke:#000000;stroke-width:1.5;"/><text fill="#000000" font-family="Verdana" font-size="13" lengthAdjust="spacing" textLength="62" x="289.5" y="626.2944">&#171;include&#187;</text></g><!--link UC9 to UC10--><g id="link_UC9_UC10"><path d="M332,565.8146 C332,551.2546 332,535.0146 332,520.1246 " fill="none" id="UC9-to-UC10" style="stroke:#000000;stroke-width:1.5;stroke-dasharray:7.0,7.0;"/><polygon fill="#000000" points="332,514.1246,328,523.1246,332,519.1246,336,523.1246,332,514.1246" style="stroke:#000000;stroke-width:1.5;"/><text fill="#000000" font-family="Verdana" font-size="13" lengthAdjust="spacing" textLength="62" x="289.5" y="545.5444">&#171;include&#187;</text></g><!--link UC10 to UC11--><g id="link_UC10_UC11"><path d="M297.45,511.7146 C251.99,531.6046 178.99,573.3346 189.5,632.9746 C200.78,697.0146 192.5,725.5346 239.5,770.4746 C253.73,784.0846 268.4105,790.0601 286.5205,793.9001 " fill="none" id="UC10-to-UC11" style="stroke:#000000;stroke-width:1.5;stroke-dasharray:7.0,7.0;"/><polygon fill="#000000" points="292.39,795.1446,284.4154,789.3648,287.4987,794.1075,282.756,797.1908,292.39,795.1446" style="stroke:#000000;stroke-width:1.5;"/><text fill="#000000" font-family="Verdana" font-size="13" lengthAdjust="spacing" textLength="62" x="168.5" y="630.0444">&#171;include&#187;</text></g><!--link Adm to UC12--><g id="link_Adm_UC12"><path d="M133.03,938.7046 C143.06,931.2246 155.48,922.7246 167.5,916.4746 C208.44,895.1846 253.296,880.5659 287.276,870.9659 " fill="none" id="Adm-to-UC12" style="stroke:#000000;stroke-width:1.5;"/><polygon fill="#000000" points="293.05,869.3346,283.3015,867.9322,288.2383,870.694,285.4765,875.6308,293.05,869.3346" style="stroke:#000000;stroke-width:1.5;"/></g><!--link Adm to UC13--><g id="link_Adm_UC13"><path d="M133.4,952.0546 C169.88,946.2246 238.7553,935.2225 285.1353,927.8025 " fill="none" id="Adm-to-UC13" style="stroke:#000000;stroke-width:1.5;"/><polygon fill="#000000" points="291.06,926.8546,281.5411,924.3266,286.1228,927.6445,282.8049,932.2261,291.06,926.8546" style="stroke:#000000;stroke-width:1.5;"/></g><!--link Adm to UC14--><g id="link_Adm_UC14"><path d="M133.4,958.0146 C167.73,962.0946 230.0318,969.4873 276.6118,975.0173 " fill="none" id="Adm-to-UC14" style="stroke:#000000;stroke-width:1.5;"/><polygon fill="#000000" points="282.57,975.7246,274.1043,970.6915,277.6049,975.1351,273.1612,978.6357,282.57,975.7246" style="stroke:#000000;stroke-width:1.5;"/></g><!--link Adm to UC15--><g id="link_Adm_UC15"><path d="M133.37,965.8446 C158.47,977.8346 201.5,997.7946 239.5,1012.4746 C259.15,1020.0646 275.8922,1025.6679 293.6522,1031.2079 " fill="none" id="Adm-to-UC15" style="stroke:#000000;stroke-width:1.5;"/><polygon fill="#000000" points="299.38,1032.9946,291.9794,1026.496,294.6068,1031.5057,289.5972,1034.1331,299.38,1032.9946" style="stroke:#000000;stroke-width:1.5;"/></g><!--link Sys to UC7--><g id="link_Sys_UC7"><path d="M137.55,765.8546 C172.19,760.9546 228.8991,752.9247 273.5191,746.6147 " fill="none" id="Sys-to-UC7" style="stroke:#000000;stroke-width:1.5;"/><polygon fill="#000000" points="279.46,745.7746,269.9886,743.0742,274.5093,746.4747,271.1088,750.9954,279.46,745.7746" style="stroke:#000000;stroke-width:1.5;"/></g><!--link Sys to UC11--><g id="link_Sys_UC11"><path d="M137.55,772.9746 C176.14,778.2646 243.5455,787.4902 287.9955,793.5802 " fill="none" id="Sys-to-UC11" style="stroke:#000000;stroke-width:1.5;"/><polygon fill="#000000" points="293.94,794.3946,285.5663,789.21,288.9863,793.7159,284.4803,797.1359,293.94,794.3946" style="stroke:#000000;stroke-width:1.5;"/></g><!--SRC=[VP9DRnen48Rl_XLJUcXx08Ml05M4H4bfenQfBMbFlKpiOR5Ox9LjYaZL_rxRx1B7I97su7tU-NZ7dbTkGpk2gaIfcDrALQ717JmWtnP6xvMOwr8RU4qe2DT9nDuIHqiVj15axZUIRnLP2xqa1BdJvgK0GzoXAigNgnYZ3qzIjpEyTB7Gogta8y64CITTIJ3Ve7lG3bP7wsW7RVXfFVIXS2kn2Ac_5MCbhHqu3KOM6mT21aDIUo5QXvPFCYr06x9D0qyb8_R7Xix4Jge8_OcnysZGQgpCgggK74E35lnb0Fvxkt9eN7JxBlQPToCb9M3fnyM2QjuB_1Cv-46sqiesl1_uBqa7-2ojTtAi-I36opy42o8HthCMXa7uwEidJQy3-sOq3pVylEyeI7U2b9Fh8zmfvq-rD3vPHSCty4NfGqdYd3OvsLLaq57kkNiLrA-wW5jqsC0u-HALxrttiOqKXxytVaTXgGML3NyQVgQmF3h9poc3fDfYzht1G_QFiJVnFO5hfKuFRba4RQ4FgZsDhv21NWxwEHZaO9Y3wz2vNiZgTDbI5SmNXqxSm4w86i5xkBcHYfTxGTCf2oIHnnVoE9Kd5_8abRjN5xf7QK0t2_2Muse_korFqilgvQ2VWq4EXibTf9KzIi96sR_VaVy0]--></g></svg>